<svg id="Flat" height="512" viewBox="0 0 64 64" width="512" xmlns="http://www.w3.org/2000/svg"><g fill="#82e250"><path d="m49.824 5.214a7 7 0 0 1 -3.3 2.714 6.993 6.993 0 0 1 .7-4.214 7 7 0 0 1 3.301-2.714 6.993 6.993 0 0 1 -.701 4.214z"/><path d="m58.486 9.391a6.99 6.99 0 0 1 -3.886 1.768 7 7 0 0 1 1.765-3.889 7 7 0 0 1 3.889-1.77 7 7 0 0 1 -1.768 3.891z"/><path d="m61.63 15.917a7 7 0 0 1 -3.3 2.714 6.993 6.993 0 0 1 .7-4.214 6.992 6.992 0 0 1 3.3-2.714 6.993 6.993 0 0 1 -.7 4.214z"/><path d="m49.886 10.747a7 7 0 0 1 4.272.041 7 7 0 0 1 -3.246 2.778 6.992 6.992 0 0 1 -4.272-.042 7 7 0 0 1 3.246-2.777z"/><path d="m43.52 7.234c.088-.016 9.29-1.328 14.094 6.343 2.357 3.761 1.852 9.8-1.319 15.751a.751.751 0 0 1 -1.015.309.749.749 0 0 1 -.309-1.014c2.919-5.482 3.445-10.942 1.372-14.249-4.274-6.824-12.256-5.708-12.6-5.657a.75.75 0 0 1 -.853-.629.75.75 0 0 1 .628-.854z"/></g><path d="m35.6 29-4.87-7.571a14 14 0 0 0 -11.776-6.429h-5.885a18.949 18.949 0 0 1 -8.469-2c1 11 6 24 23 23h8z" fill="#e8f2fc"/><path d="m16.147 15 .036.161c1.222 5.556 4.186 8.779 8.809 9.579a.75.75 0 0 0 .255-1.479c-3.975-.687-6.444-3.4-7.557-8.261z" fill="#d9edfc"/><path d="m12.077 14.971.032.166c.651 3.344 2.225 7.951 6.027 10.909a.75.75 0 0 0 .92-1.185c-3.383-2.631-4.825-6.784-5.443-9.862h-.546c-.329.001-.66-.01-.99-.028z" fill="#d9edfc"/><path d="m7.911 14.278.05.325c.661 4.312 2.806 12.132 9.749 16.05a.75.75 0 1 0 .737-1.306c-6.25-3.527-8.291-10.6-8.957-14.7q-.798-.147-1.579-.369z" fill="#d9edfc"/><path d="m24.6 41c-4 5-9 9-22 5-1 16.138 10.952 17 10.952 17s7.048-2 6.048-11" fill="#f9fcff"/><path d="m51.597 21-1 5 7-2z" fill="#ffe45a"/><path d="m19.589 55.269q-2.877-.477-5.989-1.269a.75.75 0 0 0 -.372 1.453q3.153.807 6.075 1.289a10.945 10.945 0 0 0 .286-1.473z" fill="#e8f2fc"/><path d="m13.6 54c41.579 10.648 35.616-25.2 35.733-25.665a6 6 0 0 0 -2.733-11.335c-1.921 0-11 2-14 17l-4.87-7.571a14 14 0 0 0 -11.776-6.429h-5.885a18.949 18.949 0 0 1 -8.469-2c1 11 6 24 23 23-4 5-9 9-22 5" fill="#f9fcff"/><circle cx="46.597" cy="22" fill="#6e767a" r="1"/><path d="m13.147 20 .036.161c1.222 5.556 4.186 8.779 8.809 9.579a.75.75 0 0 0 .255-1.479c-3.975-.687-6.444-3.4-7.557-8.261z" fill="#e8f2fc"/><path d="m9.077 19.971.032.166c.651 3.344 2.225 7.951 6.027 10.909a.75.75 0 0 0 .92-1.185c-3.383-2.631-4.825-6.784-5.443-9.862h-.546c-.329.001-.66-.01-.99-.028z" fill="#e8f2fc"/><path d="m4.911 19.278.05.325c.661 4.312 2.806 12.132 9.749 16.05a.75.75 0 1 0 .737-1.306c-6.247-3.527-8.291-10.603-8.957-14.695q-.798-.152-1.579-.374z" fill="#e8f2fc"/></svg>