<svg height="512" viewBox="0 0 128 128" width="512" xmlns="http://www.w3.org/2000/svg"><g><path d="m58.3 121v-15.224l2.124-4.417a36.187 36.187 0 0 0 3.576-15.686v-58.794a5.7 5.7 0 0 0 -5.7-5.7 5.7 5.7 0 0 0 -5.7 5.7v-8.708a5.7 5.7 0 0 0 -5.7-5.7 5.7 5.7 0 0 0 -5.7 5.7v-5.471a5.7 5.7 0 0 0 -5.7-5.7 5.7 5.7 0 0 0 -5.7 5.7v2.735a5.7 5.7 0 0 0 -5.7-5.7 5.7 5.7 0 0 0 -5.7 5.7v37.077a5.7 5.7 0 0 0 -5.7-5.7 5.7 5.7 0 0 0 -5.7 5.7v34.121a18.1 18.1 0 0 0 5.053 12.545l6.347 6.6v15.222z" fill="#fcbfab"/><path d="m69.7 121v-15.224l-2.124-4.417a36.187 36.187 0 0 1 -3.576-15.686v-58.794a5.7 5.7 0 0 1 5.7-5.7 5.7 5.7 0 0 1 5.7 5.7v-8.708a5.7 5.7 0 0 1 5.7-5.7 5.7 5.7 0 0 1 5.7 5.7v-5.471a5.7 5.7 0 0 1 5.7-5.7 5.7 5.7 0 0 1 5.7 5.7v2.735a5.7 5.7 0 0 1 5.7-5.7 5.7 5.7 0 0 1 5.7 5.7v37.077a5.7 5.7 0 0 1 5.7-5.7 5.7 5.7 0 0 1 5.7 5.7v34.121a18.1 18.1 0 0 1 -5.054 12.545l-6.346 6.6v15.222z" fill="#fcbfab"/><g fill="#ffa788"><path d="m33.3 7.44v47.18a1.75 1.75 0 0 1 -3.5 0v-41.92a5.711 5.711 0 0 1 3.5-5.26z"/><path d="m44.7 12.91v41.71a1.75 1.75 0 0 1 -3.5 0v-36.45a5.711 5.711 0 0 1 3.5-5.26z"/><path d="m37.91 84.45a1.75 1.75 0 0 1 -2.41-.54c-.19-.31-4.8-7.4-15.46-8.08a1.759 1.759 0 0 1 -1.64-1.75v-28.79a9.205 9.205 0 0 1 3.5 7.22v19.98a23.452 23.452 0 0 1 16.56 9.54 1.761 1.761 0 0 1 -.55 2.42z"/><path d="m94.7 7.44v47.18a1.75 1.75 0 0 0 3.5 0v-41.92a5.711 5.711 0 0 0 -3.5-5.26z"/><path d="m83.3 12.91v41.71a1.75 1.75 0 0 0 3.5 0v-36.45a5.711 5.711 0 0 0 -3.5-5.26z"/><path d="m90.09 84.45a1.75 1.75 0 0 0 2.41-.54c.19-.31 4.8-7.4 15.46-8.08a1.759 1.759 0 0 0 1.64-1.75v-28.79a9.205 9.205 0 0 0 -3.5 7.22v19.98a23.452 23.452 0 0 0 -16.56 9.54 1.761 1.761 0 0 0 .55 2.42z"/></g><path d="m76.75 10.619a15.726 15.726 0 0 0 -12.75 6.508 15.748 15.748 0 0 0 -28.5 9.242c0 18.591 28.5 37.25 28.5 37.25s28.5-18.659 28.5-37.25a15.749 15.749 0 0 0 -15.75-15.75z" fill="#fa669b"/></g></svg>