<svg id="Capa_1" enable-background="new 0 0 512 512" height="512" viewBox="0 0 512 512" width="512" xmlns="http://www.w3.org/2000/svg"><g><g><path d="m475.647 442.729c-13.619-20.123-49.937-73.786-49.937-73.786-15.731-24-7.236-55.55-5.616-81.947 1.862-30.344-7.644-60.161-20.653-87.32-6.656-13.896-14.522-27.19-22.931-40.089-16.381-25.127-35.006-48.657-53.183-72.484-4.631-6.07-13.102-8.056-19.693-4.202-6.17 3.608-8.867 10.944-6.707 17.578.677 2.097 1.367 4.192 2.062 6.287-3.121-6.812-11.19-10.173-18.368-7.157-6.574 2.762-10.081 9.969-8.185 16.843 8.953 32.468 42.992 126.228 36.042 206.085l.007-.013c-2.595 31.801 2.175 64.382 16.75 92.314 10.768 20.636 24.868 39.355 34.172 60.784l13.495 31.079c2.154 4.96 8.229 6.823 12.792 3.922l87.386-55.535c4.185-2.659 5.347-8.251 2.567-12.359z" fill="#ffcebf"/><path d="m321.119 265.862c-3.314 8.855-6.07 18.107-8.205 27.593l-2.532 13.949-1.901 15.138c1.647-18.971.986-38.736-1.108-58.267 8.479-25.224 9.11-53.997 1.81-79.272-3.467-11.966-7.412-23.872-11.499-35.747l-5.683-16.379-7.29-21.432c-1.149-4.392-4.199-7.707-7.981-9.394 1.128-1.007 2.44-1.83 3.894-2.44 1.8-.763 3.67-1.118 5.49-1.118 6.232 0 12.048 4.148 13.736 10.614l7.279 21.442 5.694 16.379c4.077 11.875 8.032 23.77 11.489 35.747 7.676 26.578 6.588 57.058-3.193 83.187z" fill="#ffb09e"/><path d="m475.646 442.726c-13.613-20.12-49.94-73.781-49.94-73.781-15.728-24.004-7.229-55.552-5.612-81.945 1.86-30.348-7.646-60.168-20.649-87.324-6.659-13.898-14.529-27.186-22.937-40.088-16.379-25.122-35.005-48.659-53.183-72.48-4.626-6.07-13.105-8.062-19.693-4.209-.854.498-1.637 1.068-2.349 1.688.885.742 1.688 1.576 2.41 2.521 18.178 23.821 36.804 47.357 53.183 72.48 8.408 12.902 16.277 26.19 22.926 40.088 13.014 27.156 22.52 56.975 20.659 87.324-1.627 26.393-10.116 57.941 5.612 81.945 0 0 40.647 65.19 54.271 85.311 1.749 2.593 1.932 5.775.773 8.439l11.966-7.605c4.18-2.665 5.349-8.257 2.563-12.364z" fill="#ffb09e"/><g><path d="m327.932 239.053 5.469-21.255c1.278-5.399 6.045-9.17 11.593-9.17 5.627 0 10.527 3.968 11.654 9.436 3.402 16.516 7.334 53.158-4.494 113.066-.355 1.375-1.881 7.561-2.692 15.2-1.282 12.085-.17 21.738 3.307 28.691 1.336 2.672 4.029 4.217 6.826 4.217 1.146 0 2.309-.26 3.405-.807 3.766-1.883 5.293-6.464 3.409-10.23-3.977-7.955-1.777-24.701.543-33.381.045-.166.083-.334.117-.502 11.782-59.535 8.959-97.752 4.515-119.329-2.579-12.521-13.763-21.61-26.591-21.61-12.65 0-23.52 8.597-26.443 20.946l-4.997 21.613z" fill="#ffb09e"/></g><path d="m38.921 455.089 87.386 55.535c4.563 2.9 10.639 1.037 12.792-3.922l13.495-31.079c9.305-21.429 23.404-40.148 34.172-60.784 14.575-27.932 19.345-60.513 16.75-92.314l.007.013c-6.95-79.857 27.089-173.617 36.042-206.085 1.896-6.874-1.611-14.081-8.185-16.843-7.179-3.016-15.247.345-18.368 7.157.695-2.095 1.385-4.19 2.062-6.287 2.16-6.634-.536-13.97-6.707-17.578-6.591-3.854-15.062-1.869-19.693 4.202-18.177 23.827-36.802 47.357-53.183 72.484-8.409 12.899-16.276 26.193-22.931 40.089-13.009 27.159-22.515 56.976-20.653 87.32 1.62 26.397 10.115 57.947-5.616 81.946 0 0-36.318 53.663-49.937 73.786-2.781 4.108-1.619 9.7 2.567 12.36z" fill="#ffcebf"/><path d="m190.881 265.862c3.314 8.855 6.07 18.107 8.205 27.593l2.532 13.949 1.901 15.138c-1.647-18.971-.986-38.736 1.108-58.267-8.479-25.224-9.11-53.997-1.81-79.272 3.467-11.966 7.412-23.872 11.499-35.747l5.683-16.379 7.29-21.432c1.149-4.392 4.199-7.707 7.981-9.394-1.128-1.007-2.44-1.83-3.894-2.44-1.8-.763-3.67-1.118-5.49-1.118-6.232 0-12.048 4.148-13.736 10.614l-7.279 21.442-5.694 16.379c-4.077 11.875-8.032 23.77-11.489 35.747-7.676 26.578-6.588 57.058 3.193 83.187z" fill="#ffb09e"/><path d="m38.916 455.089 11.966 7.605c-1.159-2.664-.976-5.846.773-8.439 13.624-20.12 54.271-85.311 54.271-85.311 15.728-24.004 7.239-55.552 5.612-81.945-1.861-30.348 7.646-60.168 20.659-87.324 6.649-13.898 14.518-27.186 22.926-40.088 16.379-25.122 35.005-48.659 53.183-72.48.722-.946 1.525-1.779 2.41-2.521-.712-.62-1.495-1.189-2.349-1.688-6.588-3.853-15.067-1.861-19.693 4.209-18.179 23.821-36.804 47.357-53.183 72.48-8.408 12.902-16.277 26.19-22.937 40.088-13.004 27.156-22.509 56.975-20.649 87.324 1.617 26.393 10.116 57.941-5.612 81.945 0 0-36.326 53.661-49.94 73.781-2.785 4.108-1.616 9.7 2.563 12.364z" fill="#ffb09e"/><g><path d="m184.128 239.053-5.469-21.255c-1.278-5.399-6.045-9.17-11.593-9.17-5.627 0-10.527 3.968-11.654 9.436-3.402 16.516-7.334 53.158 4.494 113.066.355 1.375 1.881 7.561 2.692 15.2 1.282 12.085.17 21.738-3.307 28.691-1.336 2.672-4.029 4.217-6.826 4.217-1.146 0-2.309-.26-3.405-.807-3.766-1.883-5.293-6.464-3.41-10.23 3.977-7.955 1.777-24.701-.543-33.381-.045-.166-.083-.334-.117-.502-11.782-59.535-8.959-97.752-4.515-119.329 2.579-12.521 13.763-21.61 26.591-21.61 12.65 0 23.52 8.597 26.443 20.946l4.997 21.613z" fill="#ffb09e"/></g></g><g><g><g><path d="m256 39.506c-4.212 0-7.625-3.413-7.625-7.625v-24.256c0-4.212 3.413-7.625 7.625-7.625s7.625 3.413 7.625 7.625v24.256c0 4.212-3.413 7.625-7.625 7.625z" fill="#b3dafe"/></g></g><g><g><g><g><path d="m147.015 67.801c-1.951 0-3.903-.745-5.392-2.233l-17.152-17.152c-2.978-2.979-2.978-7.806 0-10.784 2.979-2.977 7.806-2.977 10.784 0l17.152 17.152c2.978 2.979 2.978 7.806 0 10.784-1.489 1.488-3.441 2.233-5.392 2.233z" fill="#b3dafe"/></g></g><g><path d="m118.722 136.107h-24.256c-4.212 0-7.625-3.413-7.625-7.625s3.413-7.625 7.625-7.625h24.256c4.212 0 7.625 3.413 7.625 7.625 0 4.211-3.414 7.625-7.625 7.625z" fill="#b3dafe"/></g></g><g><path d="m417.534 136.107h-24.256c-4.212 0-7.625-3.413-7.625-7.625s3.413-7.625 7.625-7.625h24.256c4.212 0 7.625 3.413 7.625 7.625 0 4.211-3.413 7.625-7.625 7.625z" fill="#b3dafe"/></g><g><g><path d="m364.985 67.801c-1.951 0-3.903-.745-5.392-2.233-2.978-2.979-2.978-7.806 0-10.784l17.152-17.152c2.979-2.977 7.806-2.977 10.784 0 2.978 2.979 2.978 7.806 0 10.784l-17.152 17.152c-1.489 1.488-3.441 2.233-5.392 2.233z" fill="#b3dafe"/></g></g></g></g></g></svg>